<svg width="30" height="30" viewBox="0 0 30 30" fill="none" xmlns="http://www.w3.org/2000/svg">
<path fill-rule="evenodd" clip-rule="evenodd" d="M20 8.75C20 10.0761 19.4732 11.3479 18.5355 12.2855C17.5979 13.2232 16.3261 13.75 15 13.75C13.6739 13.75 12.4021 13.2232 11.4645 12.2855C10.5268 11.3479 10 10.0761 10 8.75C10 7.42392 10.5268 6.15215 11.4645 5.21447C12.4021 4.27678 13.6739 3.75 15 3.75C16.3261 3.75 17.5979 4.27678 18.5355 5.21447C19.4732 6.15215 20 7.42392 20 8.75ZM17.5 8.75C17.5 9.41304 17.2366 10.0489 16.7678 10.5178C16.2989 10.9866 15.663 11.25 15 11.25C14.337 11.25 13.7011 10.9866 13.2322 10.5178C12.7634 10.0489 12.5 9.41304 12.5 8.75C12.5 8.08696 12.7634 7.45107 13.2322 6.98223C13.7011 6.51339 14.337 6.25 15 6.25C15.663 6.25 16.2989 6.51339 16.7678 6.98223C17.2366 7.45107 17.5 8.08696 17.5 8.75Z" fill="black"/>
<path d="M20 18.75C20 18.4185 19.8683 18.1005 19.6339 17.8661C19.3995 17.6317 19.0815 17.5 18.75 17.5H11.25C10.9185 17.5 10.6005 17.6317 10.3661 17.8661C10.1317 18.1005 10 18.4185 10 18.75V26.25H7.5V18.75C7.5 17.7554 7.89509 16.8016 8.59835 16.0983C9.30161 15.3951 10.2554 15 11.25 15H18.75C19.7446 15 20.6984 15.3951 21.4017 16.0983C22.1049 16.8016 22.5 17.7554 22.5 18.75V26.25H20V18.75Z" fill="black"/>
</svg>
