<svg width="215" height="75" viewBox="0 0 215 75" fill="none" xmlns="http://www.w3.org/2000/svg">
<path d="M27.7714 20.0143H29.8286V30.7886C29.8286 31.4914 29.9314 32.1514 30.1371 32.7686C30.3429 33.3686 30.6343 33.8829 31.0114 34.3114C31.4057 34.74 31.8686 35.0829 32.4 35.34C32.9314 35.58 33.5314 35.7 34.2 35.7C34.8686 35.7 35.4857 35.58 36.0514 35.34C36.6171 35.1 37.1057 34.7657 37.5171 34.3371C37.9286 33.8914 38.2457 33.3686 38.4686 32.7686C38.7086 32.1686 38.8286 31.5086 38.8286 30.7886V20.0143H40.8857V30.7886C40.8857 31.7829 40.7143 32.7086 40.3714 33.5657C40.0457 34.4057 39.5829 35.1429 38.9829 35.7771C38.4 36.3943 37.6971 36.8829 36.8743 37.2429C36.0686 37.5857 35.1857 37.7571 34.2257 37.7571C33.2657 37.7571 32.3914 37.5857 31.6029 37.2429C30.8143 36.8829 30.1371 36.3943 29.5714 35.7771C29.0057 35.1429 28.56 34.4057 28.2343 33.5657C27.9257 32.7086 27.7714 31.7829 27.7714 30.7886V20.0143ZM54.5739 37.5H42.4624V35.4943H54.5739V37.5ZM46.2681 36.5743V24.6429C46.611 24.6429 46.911 24.6429 47.1681 24.6429C47.391 24.6429 47.5881 24.6429 47.7596 24.6429C47.9481 24.6429 48.0424 24.6429 48.0424 24.6429L48.3253 28.3971V36.5743H46.2681ZM47.3996 26.6229H42.4624V24.6429H47.3996V26.6229ZM52.2081 24.6429H54.5739V26.7H52.0796C51.2053 26.7 50.5196 26.76 50.0224 26.88C49.5253 26.9829 49.1481 27.2143 48.891 27.5743C48.651 27.9171 48.4967 28.4143 48.4281 29.0657C48.3596 29.7 48.3253 30.54 48.3253 31.5857L48.0167 29.94C48.0167 29.0143 48.0767 28.2257 48.1967 27.5743C48.3339 26.9057 48.5653 26.3571 48.891 25.9286C49.2167 25.4829 49.6453 25.1571 50.1767 24.9514C50.7081 24.7457 51.3853 24.6429 52.2081 24.6429ZM56.1482 18.7286H58.2054V28.3971L58.1025 30.9943L58.2054 33.72V37.5H56.1482V18.7286ZM57.6139 31.0714C57.6139 30.18 57.6911 29.3314 57.8454 28.5257C57.9996 27.7029 58.2654 26.9914 58.6425 26.3914C59.0368 25.7743 59.5596 25.2857 60.2111 24.9257C60.8796 24.5657 61.7282 24.3857 62.7568 24.3857C63.5454 24.3857 64.2739 24.54 64.9425 24.8486C65.6111 25.1571 66.1854 25.6029 66.6654 26.1857C67.1454 26.7514 67.5225 27.4457 67.7968 28.2686C68.0711 29.0914 68.2082 30.0257 68.2082 31.0714C68.2082 32.1 68.0711 33.0257 67.7968 33.8486C67.5225 34.6714 67.1454 35.3743 66.6654 35.9571C66.1854 36.54 65.6111 36.9857 64.9425 37.2943C64.2739 37.6029 63.5454 37.7571 62.7568 37.7571C61.7282 37.7571 60.8796 37.5771 60.2111 37.2171C59.5596 36.8571 59.0368 36.3686 58.6425 35.7514C58.2654 35.1343 57.9996 34.4229 57.8454 33.6171C57.6911 32.7943 57.6139 31.9457 57.6139 31.0714ZM58.1796 31.0714C58.1796 32.6657 58.5139 33.8743 59.1825 34.6971C59.8511 35.52 60.8454 35.9314 62.1654 35.9314C63.5196 35.9314 64.5225 35.5286 65.1739 34.7229C65.8425 33.9 66.1768 32.6829 66.1768 31.0714C66.1768 29.46 65.8425 28.2514 65.1739 27.4457C64.5225 26.6229 63.5196 26.2114 62.1654 26.2114C60.8454 26.2114 59.8511 26.6229 59.1825 27.4457C58.5139 28.2514 58.1796 29.46 58.1796 31.0714ZM78.9381 29.58C78.9381 28.5686 78.6639 27.7971 78.1153 27.2657C77.5667 26.7171 76.7781 26.4429 75.7496 26.4429C75.321 26.4429 74.901 26.5114 74.4896 26.6486C74.0953 26.7686 73.7439 26.9486 73.4353 27.1886C73.1267 27.4114 72.8781 27.6943 72.6896 28.0371C72.501 28.3629 72.4067 28.74 72.4067 29.1686H70.3496C70.3496 28.62 70.4696 28.0629 70.7096 27.4971C70.9496 26.9314 71.2924 26.4171 71.7381 25.9543C72.201 25.4914 72.7753 25.1143 73.461 24.8229C74.1467 24.5314 74.9353 24.3857 75.8267 24.3857C76.7353 24.3857 77.5153 24.5229 78.1667 24.7971C78.8181 25.0714 79.3496 25.4571 79.761 25.9543C80.1724 26.4343 80.481 27.0171 80.6867 27.7029C80.8924 28.3886 80.9953 29.1429 80.9953 29.9657V35.4429H81.8181V37.5H81.0724C80.5753 37.5 80.181 37.4486 79.8896 37.3457C79.6153 37.2257 79.4096 37.0457 79.2724 36.8057C79.1353 36.5657 79.041 36.2657 78.9896 35.9057C78.9553 35.5457 78.9381 35.1086 78.9381 34.5943V29.58ZM80.0181 29.4771V31.2514C80.0181 31.2514 79.8724 31.26 79.581 31.2771C79.2896 31.2943 78.9296 31.32 78.501 31.3543C78.0896 31.3886 77.6439 31.4229 77.1639 31.4571C76.6839 31.4914 76.2553 31.5257 75.8781 31.56C75.3296 31.5943 74.8067 31.6543 74.3096 31.74C73.8296 31.8086 73.401 31.9286 73.0239 32.1C72.6467 32.2714 72.3467 32.5029 72.1239 32.7943C71.9181 33.0857 71.8153 33.4457 71.8153 33.8743C71.8153 34.6629 72.0467 35.2114 72.5096 35.52C72.9896 35.8114 73.6667 35.9571 74.541 35.9571C75.4667 35.9571 76.2124 35.8286 76.7781 35.5714C77.361 35.2971 77.8067 34.9543 78.1153 34.5429C78.441 34.1143 78.6553 33.6429 78.7581 33.1286C78.8781 32.5971 78.9381 32.0743 78.9381 31.56C79.1267 31.56 79.2896 31.56 79.4267 31.56C79.5467 31.56 79.6581 31.56 79.761 31.56C79.881 31.56 79.941 31.56 79.941 31.56C79.941 32.3143 79.8467 33.06 79.6581 33.7971C79.4867 34.5343 79.1696 35.1943 78.7067 35.7771C78.2439 36.36 77.6096 36.84 76.8039 37.2171C75.9981 37.5771 74.9696 37.7571 73.7181 37.7571C72.4153 37.7571 71.4296 37.3971 70.761 36.6771C70.0924 35.9571 69.7581 35.0229 69.7581 33.8743C69.7581 33.0857 69.9296 32.4429 70.2724 31.9457C70.6153 31.4314 71.0696 31.02 71.6353 30.7114C72.2181 30.4029 72.8696 30.18 73.5896 30.0429C74.3267 29.8886 75.081 29.7943 75.8524 29.76C76.2981 29.7257 76.761 29.6914 77.241 29.6571C77.7381 29.6229 78.1924 29.5886 78.6039 29.5543C79.0839 29.52 79.5553 29.4943 80.0181 29.4771ZM85.7927 29.8629C85.8784 28.0971 86.3413 26.7429 87.1813 25.8C88.0384 24.8571 89.2899 24.3857 90.9356 24.3857C91.8099 24.3857 92.5813 24.5486 93.2499 24.8743C93.9184 25.1829 94.467 25.6286 94.8956 26.2114C95.3413 26.7771 95.6756 27.4543 95.8984 28.2429C96.1213 29.0314 96.2327 29.9057 96.2327 30.8657V37.5H94.1756V31.2257C94.1756 30.4371 94.107 29.7257 93.9699 29.0914C93.8499 28.44 93.627 27.8914 93.3013 27.4457C92.9927 27 92.5899 26.6657 92.0927 26.4429C91.5956 26.2029 90.987 26.0829 90.267 26.0829C89.7699 26.0829 89.2813 26.1686 88.8013 26.34C88.3213 26.5114 87.8841 26.82 87.4899 27.2657C87.1127 27.7114 86.8041 28.3286 86.5641 29.1171C86.3241 29.8886 86.2041 30.8914 86.2041 32.1257L85.7927 29.8629ZM84.147 37.5V24.6429H86.2041V37.5H84.147ZM104.437 21.9943V20.0143H117.551V21.9943H104.437ZM109.966 37.5V20.94H112.023V37.5H109.966ZM119.102 37.5V18.7286H121.16V37.5H119.102ZM120.722 29.8629C120.825 28.0971 121.297 26.7429 122.137 25.8C122.994 24.8571 124.245 24.3857 125.891 24.3857C126.765 24.3857 127.537 24.5486 128.205 24.8743C128.874 25.1829 129.422 25.6286 129.851 26.2114C130.297 26.7771 130.622 27.4543 130.828 28.2429C131.051 29.0314 131.162 29.9057 131.162 30.8657V37.5H129.105V31.2257C129.105 30.5057 129.045 29.8371 128.925 29.22C128.822 28.5857 128.617 28.0371 128.308 27.5743C128.017 27.1114 127.622 26.7514 127.125 26.4943C126.628 26.22 125.994 26.0829 125.222 26.0829C124.725 26.0829 124.237 26.1686 123.757 26.34C123.277 26.4943 122.84 26.8029 122.445 27.2657C122.068 27.7114 121.76 28.3286 121.52 29.1171C121.28 29.8886 121.16 30.8914 121.16 32.1257L120.722 29.8629ZM144.85 37.5H132.739V35.4943H144.85V37.5ZM136.544 36.5743V24.6429C136.887 24.6429 137.187 24.6429 137.444 24.6429C137.667 24.6429 137.864 24.6429 138.036 24.6429C138.224 24.6429 138.319 24.6429 138.319 24.6429L138.602 28.3971V36.5743H136.544ZM137.676 26.6229H132.739V24.6429H137.676V26.6229ZM142.484 24.6429H144.85V26.7H142.356C141.482 26.7 140.796 26.76 140.299 26.88C139.801 26.9829 139.424 27.2143 139.167 27.5743C138.927 27.9171 138.773 28.4143 138.704 29.0657C138.636 29.7 138.602 30.54 138.602 31.5857L138.293 29.94C138.293 29.0143 138.353 28.2257 138.473 27.5743C138.61 26.9057 138.842 26.3571 139.167 25.9286C139.493 25.4829 139.922 25.1571 140.453 24.9514C140.984 24.7457 141.662 24.6429 142.484 24.6429ZM147.556 31.6114V29.8629H157.199L158.459 31.0714V31.6114H147.556ZM156.196 33.1029H158.253C157.927 34.56 157.259 35.7 156.247 36.5229C155.253 37.3457 153.976 37.7571 152.416 37.7571C150.547 37.7571 149.073 37.1657 147.993 35.9829C146.93 34.8 146.399 33.1629 146.399 31.0714C146.399 28.9971 146.93 27.3686 147.993 26.1857C149.073 24.9857 150.547 24.3857 152.416 24.3857C154.302 24.3857 155.776 24.9857 156.839 26.1857C157.919 27.3686 158.459 28.9971 158.459 31.0714H156.427C156.427 29.46 156.093 28.2514 155.424 27.4457C154.773 26.6229 153.77 26.2114 152.416 26.2114C151.096 26.2114 150.102 26.6229 149.433 27.4457C148.764 28.2514 148.43 29.46 148.43 31.0714C148.43 32.6829 148.764 33.9 149.433 34.7229C150.102 35.5286 151.096 35.9314 152.416 35.9314C153.444 35.9314 154.276 35.7 154.91 35.2371C155.544 34.7571 155.973 34.0457 156.196 33.1029ZM169.189 29.58C169.189 28.5686 168.915 27.7971 168.366 27.2657C167.818 26.7171 167.029 26.4429 166 26.4429C165.572 26.4429 165.152 26.5114 164.741 26.6486C164.346 26.7686 163.995 26.9486 163.686 27.1886C163.378 27.4114 163.129 27.6943 162.94 28.0371C162.752 28.3629 162.658 28.74 162.658 29.1686H160.601C160.601 28.62 160.72 28.0629 160.96 27.4971C161.2 26.9314 161.543 26.4171 161.989 25.9543C162.452 25.4914 163.026 25.1143 163.712 24.8229C164.398 24.5314 165.186 24.3857 166.078 24.3857C166.986 24.3857 167.766 24.5229 168.418 24.7971C169.069 25.0714 169.6 25.4571 170.012 25.9543C170.423 26.4343 170.732 27.0171 170.938 27.7029C171.143 28.3886 171.246 29.1429 171.246 29.9657V35.4429H172.069V37.5H171.323C170.826 37.5 170.432 37.4486 170.141 37.3457C169.866 37.2257 169.661 37.0457 169.523 36.8057C169.386 36.5657 169.292 36.2657 169.241 35.9057C169.206 35.5457 169.189 35.1086 169.189 34.5943V29.58ZM170.269 29.4771V31.2514C170.269 31.2514 170.123 31.26 169.832 31.2771C169.541 31.2943 169.18 31.32 168.752 31.3543C168.34 31.3886 167.895 31.4229 167.415 31.4571C166.935 31.4914 166.506 31.5257 166.129 31.56C165.58 31.5943 165.058 31.6543 164.561 31.74C164.08 31.8086 163.652 31.9286 163.275 32.1C162.898 32.2714 162.598 32.5029 162.375 32.7943C162.169 33.0857 162.066 33.4457 162.066 33.8743C162.066 34.6629 162.298 35.2114 162.761 35.52C163.241 35.8114 163.918 35.9571 164.792 35.9571C165.718 35.9571 166.463 35.8286 167.029 35.5714C167.612 35.2971 168.058 34.9543 168.366 34.5429C168.692 34.1143 168.906 33.6429 169.009 33.1286C169.129 32.5971 169.189 32.0743 169.189 31.56C169.378 31.56 169.541 31.56 169.678 31.56C169.798 31.56 169.909 31.56 170.012 31.56C170.132 31.56 170.192 31.56 170.192 31.56C170.192 32.3143 170.098 33.06 169.909 33.7971C169.738 34.5343 169.421 35.1943 168.958 35.7771C168.495 36.36 167.861 36.84 167.055 37.2171C166.249 37.5771 165.22 37.7571 163.969 37.7571C162.666 37.7571 161.68 37.3971 161.012 36.6771C160.343 35.9571 160.009 35.0229 160.009 33.8743C160.009 33.0857 160.181 32.4429 160.523 31.9457C160.866 31.4314 161.321 31.02 161.886 30.7114C162.469 30.4029 163.121 30.18 163.841 30.0429C164.578 29.8886 165.332 29.7943 166.103 29.76C166.549 29.7257 167.012 29.6914 167.492 29.6571C167.989 29.6229 168.443 29.5886 168.855 29.5543C169.335 29.52 169.806 29.4943 170.269 29.4771ZM184.992 31.0714C184.992 31.9457 184.915 32.7943 184.761 33.6171C184.624 34.4229 184.358 35.1343 183.964 35.7514C183.587 36.3686 183.064 36.8571 182.395 37.2171C181.744 37.5771 180.895 37.7571 179.85 37.7571C179.078 37.7571 178.358 37.6029 177.69 37.2943C177.021 36.9857 176.447 36.54 175.967 35.9571C175.487 35.3743 175.11 34.6714 174.835 33.8486C174.561 33.0257 174.424 32.1 174.424 31.0714C174.424 30.0257 174.561 29.0914 174.835 28.2686C175.11 27.4457 175.487 26.7514 175.967 26.1857C176.447 25.6029 177.021 25.1571 177.69 24.8486C178.358 24.54 179.078 24.3857 179.85 24.3857C180.895 24.3857 181.744 24.5657 182.395 24.9257C183.064 25.2857 183.587 25.7743 183.964 26.3914C184.358 26.9914 184.624 27.7029 184.761 28.5257C184.915 29.3314 184.992 30.18 184.992 31.0714ZM184.452 31.0714C184.452 29.46 184.118 28.2514 183.45 27.4457C182.781 26.6229 181.787 26.2114 180.467 26.2114C179.13 26.2114 178.127 26.6229 177.458 27.4457C176.79 28.2514 176.455 29.46 176.455 31.0714C176.455 32.6829 176.79 33.9 177.458 34.7229C178.127 35.5286 179.13 35.9314 180.467 35.9314C181.787 35.9314 182.781 35.52 183.45 34.6971C184.118 33.8743 184.452 32.6657 184.452 31.0714ZM186.484 37.5H184.427V33.72L184.53 30.9943L184.427 28.3971V18.7286H186.484V37.5Z" fill="black"/>
<path d="M67.4357 50.0871V49.2129C67.4357 46.3714 69.0943 44.88 71.28 44.88H72.3343C73.89 44.88 75.3814 45.9214 75.78 47.8371H74.5457C74.2371 46.7571 73.2986 45.9857 71.8071 45.9857C69.3643 45.9857 68.5929 47.5543 68.5929 49.3157V49.9843C68.5929 51.7457 69.3643 53.2757 71.8071 53.2757C73.4271 53.2757 74.3657 52.4014 74.6229 51.2186H75.8186C75.51 53.3271 73.98 54.42 72.3343 54.42H71.28C69.0943 54.42 67.4357 52.9286 67.4357 50.0871ZM93.5456 54.2143L92.5299 51.3343H88.4799L87.4641 54.2143H86.2427L89.4441 45.0857H91.5656L94.767 54.2143H93.5456ZM88.8656 50.2286H92.1441L90.7299 46.1914H90.2799L88.8656 50.2286ZM106.076 45.0857H107.233V54.2143H106.076V45.0857ZM125.575 54.2143L123.646 50.8586H120.727V54.2143H119.57V45.0857H123.762C125.215 45.0857 126.667 45.8443 126.667 47.9786C126.667 49.65 125.87 50.4214 124.855 50.7171L126.899 54.2143H125.575ZM120.727 46.2043V49.7529H123.517C124.983 49.7529 125.446 49.0071 125.446 47.9786C125.446 46.95 124.983 46.2043 123.517 46.2043H120.727ZM142.921 44.88C145.107 44.88 146.766 46.41 146.766 49.2129V50.0871C146.766 52.9286 145.107 54.42 142.921 54.42H141.867C139.681 54.42 138.023 52.9286 138.023 50.0871V49.2129C138.023 46.3714 139.681 44.88 141.867 44.88H142.921ZM145.609 49.9843V49.3157C145.609 47.5543 144.837 45.9857 142.394 45.9857C139.951 45.9857 139.18 47.5543 139.18 49.3157V49.9843C139.18 51.7457 139.951 53.2371 142.394 53.2371C144.837 53.2371 145.609 51.7457 145.609 49.9843Z" fill="black"/>
</svg>
