<svg width="215" height="75" viewBox="0 0 215 75" fill="none" xmlns="http://www.w3.org/2000/svg">
<path d="M1 25.7568H3.76079V40.4784C3.76079 41.4387 3.89883 42.3405 4.1749 43.1838C4.45098 44.0036 4.8421 44.7063 5.34824 45.2919C5.87739 45.8775 6.49857 46.3459 7.21177 46.6973C7.92498 47.0252 8.73021 47.1892 9.62746 47.1892C10.5247 47.1892 11.353 47.0252 12.1122 46.6973C12.8714 46.3694 13.5271 45.9126 14.0792 45.327C14.6314 44.718 15.057 44.0036 15.3561 43.1838C15.6782 42.364 15.8392 41.4622 15.8392 40.4784V25.7568H18.6V40.4784C18.6 41.8369 18.37 43.1018 17.9098 44.273C17.4727 45.4207 16.8515 46.4279 16.0463 47.2946C15.2641 48.1378 14.3208 48.8054 13.2165 49.2973C12.1352 49.7658 10.9503 50 9.66197 50C8.3736 50 7.20027 49.7658 6.14197 49.2973C5.08366 48.8054 4.1749 48.1378 3.41569 47.2946C2.65647 46.4279 2.0583 45.4207 1.62117 44.273C1.20706 43.1018 1 41.8369 1 40.4784V25.7568ZM36.9702 49.6486H20.7161V46.9081H36.9702V49.6486ZM25.8235 48.3838V32.0811C26.2836 32.0811 26.6863 32.0811 27.0314 32.0811C27.3304 32.0811 27.595 32.0811 27.8251 32.0811C28.0782 32.0811 28.2047 32.0811 28.2047 32.0811L28.5843 37.2108V48.3838H25.8235ZM27.3419 34.7865H20.7161V32.0811H27.3419V34.7865ZM33.7953 32.0811H36.9702V34.8919H33.6227C32.4494 34.8919 31.5291 34.9739 30.862 35.1378C30.1948 35.2784 29.6886 35.5946 29.3435 36.0865C29.0214 36.555 28.8144 37.2342 28.7223 38.1243C28.6303 38.991 28.5843 40.1387 28.5843 41.5676L28.1702 39.3189C28.1702 38.0541 28.2507 36.9766 28.4118 36.0865C28.5958 35.173 28.9064 34.4234 29.3435 33.8378C29.7806 33.2288 30.3558 32.7838 31.069 32.5027C31.7822 32.2216 32.691 32.0811 33.7953 32.0811ZM39.0831 24H41.8439V37.2108L41.7058 40.7595L41.8439 44.4838V49.6486H39.0831V24ZM41.0501 40.8649C41.0501 39.6468 41.1537 38.4874 41.3607 37.3865C41.5678 36.2622 41.9244 35.2901 42.4305 34.4703C42.9597 33.627 43.6614 32.9595 44.5356 32.4676C45.4329 31.9757 46.5717 31.7297 47.9521 31.7297C49.0104 31.7297 49.9882 31.9405 50.8854 32.3622C51.7827 32.7838 52.5534 33.3928 53.1976 34.1892C53.8418 34.9622 54.3479 35.9108 54.716 37.0351C55.0841 38.1595 55.2682 39.436 55.2682 40.8649C55.2682 42.2703 55.0841 43.5351 54.716 44.6595C54.3479 45.7838 53.8418 46.7441 53.1976 47.5405C52.5534 48.3369 51.7827 48.9459 50.8854 49.3676C49.9882 49.7892 49.0104 50 47.9521 50C46.5717 50 45.4329 49.7541 44.5356 49.2622C43.6614 48.7703 42.9597 48.1027 42.4305 47.2595C41.9244 46.4162 41.5678 45.4441 41.3607 44.3432C41.1537 43.2189 41.0501 42.0595 41.0501 40.8649ZM41.8093 40.8649C41.8093 43.0432 42.258 44.6946 43.1552 45.8189C44.0525 46.9432 45.3869 47.5054 47.1584 47.5054C48.9759 47.5054 50.3218 46.955 51.196 45.8541C52.0933 44.7297 52.5419 43.0667 52.5419 40.8649C52.5419 38.6631 52.0933 37.0117 51.196 35.9108C50.3218 34.7865 48.9759 34.2243 47.1584 34.2243C45.3869 34.2243 44.0525 34.7865 43.1552 35.9108C42.258 37.0117 41.8093 38.6631 41.8093 40.8649ZM69.6683 38.827C69.6683 37.445 69.3002 36.391 68.564 35.6649C67.8278 34.9153 66.7695 34.5405 65.3891 34.5405C64.8139 34.5405 64.2502 34.6342 63.6981 34.8216C63.1689 34.9856 62.6973 35.2315 62.2832 35.5595C61.8691 35.864 61.5355 36.2504 61.2824 36.7189C61.0293 37.164 60.9028 37.6793 60.9028 38.2649H58.142C58.142 37.5153 58.303 36.7541 58.6251 35.9811C58.9472 35.2081 59.4074 34.5054 60.0055 33.873C60.6267 33.2405 61.3974 32.7252 62.3177 32.327C63.2379 31.9288 64.2963 31.7297 65.4926 31.7297C66.7119 31.7297 67.7587 31.9171 68.633 32.2919C69.5072 32.6667 70.2204 33.1937 70.7726 33.873C71.3248 34.5288 71.7389 35.3252 72.015 36.2622C72.291 37.1991 72.4291 38.2297 72.4291 39.3541V46.8378H73.5334V49.6486H72.5326C71.8654 49.6486 71.3363 49.5784 70.9451 49.4378C70.577 49.2739 70.301 49.0279 70.1169 48.7C69.9329 48.3721 69.8063 47.9622 69.7373 47.4703C69.6913 46.9784 69.6683 46.3811 69.6683 45.6784V38.827ZM71.1177 38.6865V41.1108C71.1177 41.1108 70.9221 41.1225 70.531 41.1459C70.1399 41.1694 69.6568 41.2045 69.0816 41.2514C68.5295 41.2982 67.9313 41.345 67.2871 41.3919C66.6429 41.4387 66.0678 41.4856 65.5616 41.5324C64.8254 41.5793 64.1237 41.6613 63.4565 41.7784C62.8123 41.8721 62.2372 42.036 61.731 42.2703C61.2249 42.5045 60.8223 42.8207 60.5232 43.2189C60.2471 43.6171 60.1091 44.109 60.1091 44.6946C60.1091 45.7721 60.4196 46.5216 61.0408 46.9432C61.685 47.3414 62.5938 47.5405 63.7671 47.5405C65.0095 47.5405 66.0102 47.3649 66.7695 47.0135C67.5517 46.6387 68.1498 46.1703 68.564 45.6081C69.0011 45.0225 69.2887 44.3784 69.4267 43.6757C69.5878 42.9496 69.6683 42.2351 69.6683 41.5324C69.9214 41.5324 70.1399 41.5324 70.324 41.5324C70.485 41.5324 70.6346 41.5324 70.7726 41.5324C70.9336 41.5324 71.0142 41.5324 71.0142 41.5324C71.0142 42.5631 70.8876 43.582 70.6346 44.5892C70.4045 45.5964 69.9789 46.4982 69.3577 47.2946C68.7365 48.091 67.8853 48.7468 66.804 49.2622C65.7227 49.7541 64.3423 50 62.6628 50C60.9143 50 59.5914 49.5081 58.6941 48.5243C57.7969 47.5405 57.3483 46.264 57.3483 44.6946C57.3483 43.6171 57.5783 42.7387 58.0385 42.0595C58.4986 41.3568 59.1083 40.7946 59.8675 40.373C60.6497 39.9514 61.524 39.6468 62.4902 39.4595C63.4795 39.2486 64.4918 39.1198 65.5271 39.073C66.1253 39.0261 66.7465 38.9793 67.3906 38.9324C68.0578 38.8856 68.6675 38.8387 69.2197 38.7919C69.8638 38.745 70.4965 38.7099 71.1177 38.6865ZM78.8675 39.2135C78.9825 36.8009 79.6037 34.9505 80.731 33.6622C81.8813 32.3739 83.5608 31.7297 85.7694 31.7297C86.9428 31.7297 87.9781 31.9523 88.8753 32.3973C89.7726 32.8189 90.5088 33.4279 91.084 34.2243C91.6821 34.9973 92.1307 35.9225 92.4298 37C92.7289 38.0775 92.8785 39.2721 92.8785 40.5838V49.6486H90.1177V41.0757C90.1177 39.9982 90.0256 39.0261 89.8416 38.1595C89.6805 37.2694 89.3815 36.5198 88.9443 35.9108C88.5302 35.3018 87.9896 34.845 87.3224 34.5405C86.6552 34.2126 85.8385 34.0486 84.8722 34.0486C84.205 34.0486 83.5493 34.1658 82.9051 34.4C82.2609 34.6342 81.6743 35.0559 81.1451 35.6649C80.639 36.2739 80.2248 37.1171 79.9028 38.1946C79.5807 39.2486 79.4196 40.6189 79.4196 42.3054L78.8675 39.2135ZM76.6588 49.6486V32.0811H79.4196V49.6486H76.6588ZM103.889 28.4622V25.7568H121.489V28.4622H103.889ZM111.309 49.6486V27.0216H114.07V49.6486H111.309ZM123.571 49.6486V24H126.331V49.6486H123.571ZM125.745 39.2135C125.883 36.8009 126.516 34.9505 127.643 33.6622C128.793 32.3739 130.473 31.7297 132.681 31.7297C133.855 31.7297 134.89 31.9523 135.787 32.3973C136.684 32.8189 137.421 33.4279 137.996 34.2243C138.594 34.9973 139.031 35.9225 139.307 37C139.606 38.0775 139.756 39.2721 139.756 40.5838V49.6486H136.995V41.0757C136.995 40.0919 136.914 39.1784 136.753 38.3351C136.615 37.4685 136.339 36.7189 135.925 36.0865C135.534 35.4541 135.005 34.9622 134.338 34.6108C133.671 34.236 132.819 34.0486 131.784 34.0486C131.117 34.0486 130.461 34.1658 129.817 34.4C129.173 34.6108 128.586 35.0324 128.057 35.6649C127.551 36.2739 127.137 37.1171 126.815 38.1946C126.493 39.2486 126.331 40.6189 126.331 42.3054L125.745 39.2135ZM158.125 49.6486H141.871V46.9081H158.125V49.6486ZM146.979 48.3838V32.0811C147.439 32.0811 147.841 32.0811 148.187 32.0811C148.486 32.0811 148.75 32.0811 148.98 32.0811C149.233 32.0811 149.36 32.0811 149.36 32.0811L149.739 37.2108V48.3838H146.979ZM148.497 34.7865H141.871V32.0811H148.497V34.7865ZM154.95 32.0811H158.125V34.8919H154.778C153.605 34.8919 152.684 34.9739 152.017 35.1378C151.35 35.2784 150.844 35.5946 150.499 36.0865C150.177 36.555 149.97 37.2342 149.878 38.1243C149.786 38.991 149.739 40.1387 149.739 41.5676L149.325 39.3189C149.325 38.0541 149.406 36.9766 149.567 36.0865C149.751 35.173 150.062 34.4234 150.499 33.8378C150.936 33.2288 151.511 32.7838 152.224 32.5027C152.937 32.2216 153.846 32.0811 154.95 32.0811ZM161.757 41.6027V39.2135H174.698L176.389 40.8649V41.6027H161.757ZM173.352 43.6405H176.113C175.676 45.6315 174.778 47.1892 173.421 48.3135C172.087 49.4378 170.373 50 168.279 50C165.771 50 163.793 49.1919 162.343 47.5757C160.917 45.9595 160.204 43.7225 160.204 40.8649C160.204 38.0306 160.917 35.8054 162.343 34.1892C163.793 32.5495 165.771 31.7297 168.279 31.7297C170.81 31.7297 172.788 32.5495 174.215 34.1892C175.664 35.8054 176.389 38.0306 176.389 40.8649H173.663C173.663 38.6631 173.214 37.0117 172.317 35.9108C171.442 34.7865 170.097 34.2243 168.279 34.2243C166.508 34.2243 165.173 34.7865 164.276 35.9108C163.379 37.0117 162.93 38.6631 162.93 40.8649C162.93 43.0667 163.379 44.7297 164.276 45.8541C165.173 46.955 166.508 47.5054 168.279 47.5054C169.659 47.5054 170.775 47.1892 171.626 46.5568C172.478 45.9009 173.053 44.9288 173.352 43.6405ZM190.79 38.827C190.79 37.445 190.421 36.391 189.685 35.6649C188.949 34.9153 187.891 34.5405 186.51 34.5405C185.935 34.5405 185.371 34.6342 184.819 34.8216C184.29 34.9856 183.819 35.2315 183.404 35.5595C182.99 35.864 182.657 36.2504 182.404 36.7189C182.151 37.164 182.024 37.6793 182.024 38.2649H179.263C179.263 37.5153 179.424 36.7541 179.746 35.9811C180.068 35.2081 180.529 34.5054 181.127 33.873C181.748 33.2405 182.519 32.7252 183.439 32.327C184.359 31.9288 185.417 31.7297 186.614 31.7297C187.833 31.7297 188.88 31.9171 189.754 32.2919C190.628 32.6667 191.342 33.1937 191.894 33.873C192.446 34.5288 192.86 35.3252 193.136 36.2622C193.412 37.1991 193.55 38.2297 193.55 39.3541V46.8378H194.655V49.6486H193.654C192.987 49.6486 192.458 49.5784 192.066 49.4378C191.698 49.2739 191.422 49.0279 191.238 48.7C191.054 48.3721 190.928 47.9622 190.859 47.4703C190.813 46.9784 190.79 46.3811 190.79 45.6784V38.827ZM192.239 38.6865V41.1108C192.239 41.1108 192.043 41.1225 191.652 41.1459C191.261 41.1694 190.778 41.2045 190.203 41.2514C189.651 41.2982 189.053 41.345 188.408 41.3919C187.764 41.4387 187.189 41.4856 186.683 41.5324C185.947 41.5793 185.245 41.6613 184.578 41.7784C183.934 41.8721 183.358 42.036 182.852 42.2703C182.346 42.5045 181.944 42.8207 181.644 43.2189C181.368 43.6171 181.23 44.109 181.23 44.6946C181.23 45.7721 181.541 46.5216 182.162 46.9432C182.806 47.3414 183.715 47.5405 184.888 47.5405C186.131 47.5405 187.131 47.3649 187.891 47.0135C188.673 46.6387 189.271 46.1703 189.685 45.6081C190.122 45.0225 190.41 44.3784 190.548 43.6757C190.709 42.9496 190.79 42.2351 190.79 41.5324C191.043 41.5324 191.261 41.5324 191.445 41.5324C191.606 41.5324 191.756 41.5324 191.894 41.5324C192.055 41.5324 192.135 41.5324 192.135 41.5324C192.135 42.5631 192.009 43.582 191.756 44.5892C191.526 45.5964 191.1 46.4982 190.479 47.2946C189.858 48.091 189.007 48.7468 187.925 49.2622C186.844 49.7541 185.464 50 183.784 50C182.036 50 180.713 49.5081 179.815 48.5243C178.918 47.5405 178.47 46.264 178.47 44.6946C178.47 43.6171 178.7 42.7387 179.16 42.0595C179.62 41.3568 180.23 40.7946 180.989 40.373C181.771 39.9514 182.645 39.6468 183.611 39.4595C184.601 39.2486 185.613 39.1198 186.648 39.073C187.247 39.0261 187.868 38.9793 188.512 38.9324C189.179 38.8856 189.789 38.8387 190.341 38.7919C190.985 38.745 191.618 38.7099 192.239 38.6865ZM211.998 40.8649C211.998 42.0595 211.895 43.2189 211.688 44.3432C211.504 45.4441 211.147 46.4162 210.618 47.2595C210.112 48.1027 209.41 48.7703 208.513 49.2622C207.639 49.7541 206.5 50 205.096 50C204.061 50 203.095 49.7892 202.198 49.3676C201.3 48.9459 200.53 48.3369 199.885 47.5405C199.241 46.7441 198.735 45.7838 198.367 44.6595C197.999 43.5351 197.815 42.2703 197.815 40.8649C197.815 39.436 197.999 38.1595 198.367 37.0351C198.735 35.9108 199.241 34.9622 199.885 34.1892C200.53 33.3928 201.3 32.7838 202.198 32.3622C203.095 31.9405 204.061 31.7297 205.096 31.7297C206.5 31.7297 207.639 31.9757 208.513 32.4676C209.41 32.9595 210.112 33.627 210.618 34.4703C211.147 35.2901 211.504 36.2622 211.688 37.3865C211.895 38.4874 211.998 39.6468 211.998 40.8649ZM211.274 40.8649C211.274 38.6631 210.825 37.0117 209.928 35.9108C209.031 34.7865 207.696 34.2243 205.925 34.2243C204.13 34.2243 202.784 34.7865 201.887 35.9108C200.99 37.0117 200.541 38.6631 200.541 40.8649C200.541 43.0667 200.99 44.7297 201.887 45.8541C202.784 46.955 204.13 47.5054 205.925 47.5054C207.696 47.5054 209.031 46.9432 209.928 45.8189C210.825 44.6946 211.274 43.0432 211.274 40.8649ZM214 49.6486H211.239V44.4838L211.377 40.7595L211.239 37.2108V24H214V49.6486Z" fill="black"/>
</svg>
