<svg width="215" height="75" viewBox="0 0 215 75" fill="none" xmlns="http://www.w3.org/2000/svg">
<path d="M7 26.6216H9.59459V40.2108C9.59459 41.0973 9.72432 41.9297 9.98378 42.7081C10.2432 43.4649 10.6108 44.1135 11.0865 44.6541C11.5838 45.1946 12.1676 45.627 12.8378 45.9514C13.5081 46.2541 14.2649 46.4054 15.1081 46.4054C15.9514 46.4054 16.7297 46.2541 17.4432 45.9514C18.1568 45.6486 18.773 45.227 19.2919 44.6865C19.8108 44.1243 20.2108 43.4649 20.4919 42.7081C20.7946 41.9514 20.9459 41.1189 20.9459 40.2108V26.6216H23.5405V40.2108C23.5405 41.4649 23.3243 42.6324 22.8919 43.7135C22.4811 44.773 21.8973 45.7027 21.1405 46.5027C20.4054 47.2811 19.5189 47.8973 18.4811 48.3514C17.4649 48.7838 16.3514 49 15.1405 49C13.9297 49 12.827 48.7838 11.8324 48.3514C10.8378 47.8973 9.98378 47.2811 9.27027 46.5027C8.55676 45.7027 7.99459 44.773 7.58378 43.7135C7.19459 42.6324 7 41.4649 7 40.2108V26.6216ZM40.8049 48.6757H25.5292V46.1459H40.8049V48.6757ZM30.3292 47.5081V32.4595C30.7616 32.4595 31.14 32.4595 31.4643 32.4595C31.7454 32.4595 31.9941 32.4595 32.2103 32.4595C32.4481 32.4595 32.567 32.4595 32.567 32.4595L32.9238 37.1946V47.5081H30.3292ZM31.7562 34.9568H25.5292V32.4595H31.7562V34.9568ZM37.8211 32.4595H40.8049V35.0541H37.6589C36.5562 35.0541 35.6914 35.1297 35.0643 35.2811C34.4373 35.4108 33.9616 35.7027 33.6373 36.1568C33.3346 36.5892 33.14 37.2162 33.0535 38.0378C32.967 38.8378 32.9238 39.8973 32.9238 41.2162L32.5346 39.1405C32.5346 37.973 32.6103 36.9784 32.7616 36.1568C32.9346 35.3135 33.2265 34.6216 33.6373 34.0811C34.0481 33.5189 34.5887 33.1081 35.2589 32.8486C35.9292 32.5892 36.7832 32.4595 37.8211 32.4595ZM42.7905 25H45.3851V37.1946L45.2554 40.4703L45.3851 43.9081V48.6757H42.7905V25ZM44.6392 40.5676C44.6392 39.4432 44.7365 38.373 44.9311 37.3568C45.1257 36.3189 45.4608 35.4216 45.9365 34.6649C46.4338 33.8865 47.0932 33.2703 47.9149 32.8162C48.7581 32.3622 49.8284 32.1351 51.1257 32.1351C52.1203 32.1351 53.0392 32.3297 53.8824 32.7189C54.7257 33.1081 55.45 33.6703 56.0554 34.4054C56.6608 35.1189 57.1365 35.9946 57.4824 37.0324C57.8284 38.0703 58.0014 39.2486 58.0014 40.5676C58.0014 41.8649 57.8284 43.0324 57.4824 44.0703C57.1365 45.1081 56.6608 45.9946 56.0554 46.7297C55.45 47.4649 54.7257 48.027 53.8824 48.4162C53.0392 48.8054 52.1203 49 51.1257 49C49.8284 49 48.7581 48.773 47.9149 48.3189C47.0932 47.8649 46.4338 47.2486 45.9365 46.4703C45.4608 45.6919 45.1257 44.7946 44.9311 43.7784C44.7365 42.7405 44.6392 41.6703 44.6392 40.5676ZM45.3527 40.5676C45.3527 42.5784 45.7743 44.1027 46.6176 45.1405C47.4608 46.1784 48.7149 46.6973 50.3797 46.6973C52.0878 46.6973 53.3527 46.1892 54.1743 45.173C55.0176 44.1351 55.4392 42.6 55.4392 40.5676C55.4392 38.5351 55.0176 37.0108 54.1743 35.9946C53.3527 34.9568 52.0878 34.4378 50.3797 34.4378C48.7149 34.4378 47.4608 34.9568 46.6176 35.9946C45.7743 37.0108 45.3527 38.5351 45.3527 40.5676ZM71.5346 38.6865C71.5346 37.4108 71.1886 36.4378 70.4968 35.7676C69.8049 35.0757 68.8103 34.7297 67.513 34.7297C66.9724 34.7297 66.4427 34.8162 65.9238 34.9892C65.4265 35.1405 64.9832 35.3676 64.5941 35.6703C64.2049 35.9514 63.8913 36.3081 63.6535 36.7405C63.4157 37.1514 63.2968 37.627 63.2968 38.1676H60.7022C60.7022 37.4757 60.8535 36.773 61.1562 36.0595C61.4589 35.3459 61.8914 34.6973 62.4535 34.1135C63.0373 33.5297 63.7616 33.0541 64.6265 32.6865C65.4914 32.3189 66.4859 32.1351 67.6103 32.1351C68.7562 32.1351 69.74 32.3081 70.5616 32.6541C71.3832 33 72.0535 33.4865 72.5724 34.1135C73.0914 34.7189 73.4805 35.4541 73.74 36.3189C73.9995 37.1838 74.1292 38.1351 74.1292 39.173V46.0811H75.167V48.6757H74.2265C73.5995 48.6757 73.1022 48.6108 72.7346 48.4811C72.3886 48.3297 72.1292 48.1027 71.9562 47.8C71.7832 47.4973 71.6643 47.1189 71.5995 46.6649C71.5562 46.2108 71.5346 45.6595 71.5346 45.0108V38.6865ZM72.8968 38.5568V40.7946C72.8968 40.7946 72.713 40.8054 72.3454 40.827C71.9778 40.8487 71.5238 40.8811 70.9832 40.9243C70.4643 40.9676 69.9022 41.0108 69.2968 41.0541C68.6914 41.0973 68.1508 41.1405 67.6751 41.1838C66.9832 41.227 66.3238 41.3027 65.6968 41.4108C65.0914 41.4973 64.5508 41.6487 64.0751 41.8649C63.5995 42.0811 63.2211 42.373 62.94 42.7405C62.6805 43.1081 62.5508 43.5622 62.5508 44.1027C62.5508 45.0973 62.8427 45.7892 63.4265 46.1784C64.0319 46.5459 64.8859 46.7297 65.9887 46.7297C67.1562 46.7297 68.0968 46.5676 68.8103 46.2432C69.5454 45.8973 70.1076 45.4649 70.4968 44.9459C70.9076 44.4054 71.1778 43.8108 71.3076 43.1622C71.4589 42.4919 71.5346 41.8324 71.5346 41.1838C71.7724 41.1838 71.9778 41.1838 72.1508 41.1838C72.3022 41.1838 72.4427 41.1838 72.5724 41.1838C72.7238 41.1838 72.7995 41.1838 72.7995 41.1838C72.7995 42.1351 72.6805 43.0757 72.4427 44.0054C72.2265 44.9351 71.8265 45.7676 71.2427 46.5027C70.6589 47.2378 69.8589 47.8432 68.8427 48.3189C67.8265 48.773 66.5292 49 64.9508 49C63.3076 49 62.0643 48.5459 61.2211 47.6378C60.3778 46.7297 59.9562 45.5514 59.9562 44.1027C59.9562 43.1081 60.1724 42.2973 60.6049 41.6703C61.0373 41.0216 61.6103 40.5027 62.3238 40.1135C63.0589 39.7243 63.8805 39.4432 64.7887 39.2703C65.7184 39.0757 66.6697 38.9568 67.6427 38.9135C68.2049 38.8703 68.7887 38.827 69.3941 38.7838C70.0211 38.7405 70.5941 38.6973 71.113 38.6541C71.7184 38.6108 72.313 38.5784 72.8968 38.5568ZM80.18 39.0432C80.2881 36.8162 80.8719 35.1081 81.9314 33.9189C83.0124 32.7297 84.5908 32.1351 86.6665 32.1351C87.7692 32.1351 88.7422 32.3405 89.5854 32.7514C90.4286 33.1405 91.1205 33.7027 91.6611 34.4378C92.2232 35.1514 92.6449 36.0054 92.926 37C93.207 37.9946 93.3476 39.0973 93.3476 40.3081V48.6757H90.753V40.7622C90.753 39.7676 90.6665 38.8703 90.4935 38.0703C90.3422 37.2486 90.0611 36.5568 89.6503 35.9946C89.2611 35.4324 88.753 35.0108 88.1259 34.7297C87.4989 34.427 86.7314 34.2757 85.8232 34.2757C85.1962 34.2757 84.58 34.3838 83.9746 34.6C83.3692 34.8162 82.8178 35.2054 82.3205 35.7676C81.8449 36.3297 81.4557 37.1081 81.153 38.1027C80.8503 39.0757 80.6989 40.3405 80.6989 41.8973L80.18 39.0432ZM78.1043 48.6757V32.4595H80.6989V48.6757H78.1043ZM103.695 29.1189V26.6216H120.236V29.1189H103.695ZM110.668 48.6757V27.7892H113.263V48.6757H110.668ZM122.192 48.6757V25H124.787V48.6757H122.192ZM124.235 39.0432C124.365 36.8162 124.96 35.1081 126.019 33.9189C127.1 32.7297 128.679 32.1351 130.754 32.1351C131.857 32.1351 132.83 32.3405 133.673 32.7514C134.516 33.1405 135.208 33.7027 135.749 34.4378C136.311 35.1514 136.722 36.0054 136.981 37C137.262 37.9946 137.403 39.0973 137.403 40.3081V48.6757H134.808V40.7622C134.808 39.8541 134.733 39.0108 134.581 38.2324C134.452 37.4324 134.192 36.7405 133.803 36.1568C133.435 35.573 132.938 35.1189 132.311 34.7946C131.684 34.4486 130.884 34.2757 129.911 34.2757C129.284 34.2757 128.668 34.3838 128.062 34.6C127.457 34.7946 126.906 35.1838 126.408 35.7676C125.933 36.3297 125.544 37.1081 125.241 38.1027C124.938 39.0757 124.787 40.3405 124.787 41.8973L124.235 39.0432ZM154.667 48.6757H139.391V46.1459H154.667V48.6757ZM144.191 47.5081V32.4595C144.624 32.4595 145.002 32.4595 145.326 32.4595C145.607 32.4595 145.856 32.4595 146.072 32.4595C146.31 32.4595 146.429 32.4595 146.429 32.4595L146.786 37.1946V47.5081H144.191ZM145.618 34.9568H139.391V32.4595H145.618V34.9568ZM151.683 32.4595H154.667V35.0541H151.521C150.418 35.0541 149.553 35.1297 148.926 35.2811C148.299 35.4108 147.824 35.7027 147.499 36.1568C147.197 36.5892 147.002 37.2162 146.915 38.0378C146.829 38.8378 146.786 39.8973 146.786 41.2162L146.396 39.1405C146.396 37.973 146.472 36.9784 146.624 36.1568C146.796 35.3135 147.088 34.6216 147.499 34.0811C147.91 33.5189 148.451 33.1081 149.121 32.8486C149.791 32.5892 150.645 32.4595 151.683 32.4595ZM158.079 41.2487V39.0432H170.242L171.831 40.5676V41.2487H158.079ZM168.977 43.1297H171.571C171.161 44.9676 170.317 46.4054 169.042 47.4432C167.788 48.4811 166.177 49 164.209 49C161.852 49 159.993 48.2541 158.631 46.7622C157.29 45.2703 156.62 43.2054 156.62 40.5676C156.62 37.9514 157.29 35.8973 158.631 34.4054C159.993 32.8919 161.852 32.1351 164.209 32.1351C166.588 32.1351 168.447 32.8919 169.788 34.4054C171.15 35.8973 171.831 37.9514 171.831 40.5676H169.269C169.269 38.5351 168.847 37.0108 168.004 35.9946C167.182 34.9568 165.917 34.4378 164.209 34.4378C162.544 34.4378 161.29 34.9568 160.447 35.9946C159.604 37.0108 159.182 38.5351 159.182 40.5676C159.182 42.6 159.604 44.1351 160.447 45.173C161.29 46.1892 162.544 46.6973 164.209 46.6973C165.506 46.6973 166.555 46.4054 167.355 45.8216C168.155 45.2162 168.696 44.3189 168.977 43.1297ZM185.365 38.6865C185.365 37.4108 185.019 36.4378 184.327 35.7676C183.635 35.0757 182.64 34.7297 181.343 34.7297C180.802 34.7297 180.273 34.8162 179.754 34.9892C179.256 35.1405 178.813 35.3676 178.424 35.6703C178.035 35.9514 177.721 36.3081 177.484 36.7405C177.246 37.1514 177.127 37.627 177.127 38.1676H174.532C174.532 37.4757 174.684 36.773 174.986 36.0595C175.289 35.3459 175.721 34.6973 176.284 34.1135C176.867 33.5297 177.592 33.0541 178.457 32.6865C179.321 32.3189 180.316 32.1351 181.44 32.1351C182.586 32.1351 183.57 32.3081 184.392 32.6541C185.213 33 185.884 33.4865 186.402 34.1135C186.921 34.7189 187.311 35.4541 187.57 36.3189C187.829 37.1838 187.959 38.1351 187.959 39.173V46.0811H188.997V48.6757H188.056C187.429 48.6757 186.932 48.6108 186.565 48.4811C186.219 48.3297 185.959 48.1027 185.786 47.8C185.613 47.4973 185.494 47.1189 185.429 46.6649C185.386 46.2108 185.365 45.6595 185.365 45.0108V38.6865ZM186.727 38.5568V40.7946C186.727 40.7946 186.543 40.8054 186.175 40.827C185.808 40.8487 185.354 40.8811 184.813 40.9243C184.294 40.9676 183.732 41.0108 183.127 41.0541C182.521 41.0973 181.981 41.1405 181.505 41.1838C180.813 41.227 180.154 41.3027 179.527 41.4108C178.921 41.4973 178.381 41.6487 177.905 41.8649C177.429 42.0811 177.051 42.373 176.77 42.7405C176.511 43.1081 176.381 43.5622 176.381 44.1027C176.381 45.0973 176.673 45.7892 177.256 46.1784C177.862 46.5459 178.716 46.7297 179.819 46.7297C180.986 46.7297 181.927 46.5676 182.64 46.2432C183.375 45.8973 183.938 45.4649 184.327 44.9459C184.738 44.4054 185.008 43.8108 185.138 43.1622C185.289 42.4919 185.365 41.8324 185.365 41.1838C185.602 41.1838 185.808 41.1838 185.981 41.1838C186.132 41.1838 186.273 41.1838 186.402 41.1838C186.554 41.1838 186.629 41.1838 186.629 41.1838C186.629 42.1351 186.511 43.0757 186.273 44.0054C186.056 44.9351 185.657 45.7676 185.073 46.5027C184.489 47.2378 183.689 47.8432 182.673 48.3189C181.657 48.773 180.359 49 178.781 49C177.138 49 175.894 48.5459 175.051 47.6378C174.208 46.7297 173.786 45.5514 173.786 44.1027C173.786 43.1081 174.002 42.2973 174.435 41.6703C174.867 41.0216 175.44 40.5027 176.154 40.1135C176.889 39.7243 177.711 39.4432 178.619 39.2703C179.548 39.0757 180.5 38.9568 181.473 38.9135C182.035 38.8703 182.619 38.827 183.224 38.7838C183.851 38.7405 184.424 38.6973 184.943 38.6541C185.548 38.6108 186.143 38.5784 186.727 38.5568ZM205.297 40.5676C205.297 41.6703 205.199 42.7405 205.005 43.7784C204.832 44.7946 204.497 45.6919 203.999 46.4703C203.524 47.2486 202.864 47.8649 202.021 48.3189C201.199 48.773 200.129 49 198.81 49C197.837 49 196.929 48.8054 196.086 48.4162C195.243 48.027 194.518 47.4649 193.913 46.7297C193.308 45.9946 192.832 45.1081 192.486 44.0703C192.14 43.0324 191.967 41.8649 191.967 40.5676C191.967 39.2486 192.14 38.0703 192.486 37.0324C192.832 35.9946 193.308 35.1189 193.913 34.4054C194.518 33.6703 195.243 33.1081 196.086 32.7189C196.929 32.3297 197.837 32.1351 198.81 32.1351C200.129 32.1351 201.199 32.3622 202.021 32.8162C202.864 33.2703 203.524 33.8865 203.999 34.6649C204.497 35.4216 204.832 36.3189 205.005 37.3568C205.199 38.373 205.297 39.4432 205.297 40.5676ZM204.616 40.5676C204.616 38.5351 204.194 37.0108 203.351 35.9946C202.508 34.9568 201.254 34.4378 199.589 34.4378C197.902 34.4378 196.637 34.9568 195.794 35.9946C194.951 37.0108 194.529 38.5351 194.529 40.5676C194.529 42.6 194.951 44.1351 195.794 45.173C196.637 46.1892 197.902 46.6973 199.589 46.6973C201.254 46.6973 202.508 46.1784 203.351 45.1405C204.194 44.1027 204.616 42.5784 204.616 40.5676ZM207.178 48.6757H204.583V43.9081L204.713 40.4703L204.583 37.1946V25H207.178V48.6757Z" fill="black"/>
</svg>
