<svg width="16" height="16" viewBox="0 0 16 16" fill="none" xmlns="http://www.w3.org/2000/svg">
<path fill-rule="evenodd" clip-rule="evenodd" d="M3.47001 3.47C3.61064 3.32955 3.80126 3.25066 4.00001 3.25066C4.19876 3.25066 4.38939 3.32955 4.53001 3.47L8.00001 6.94L11.47 3.47C11.5387 3.39631 11.6215 3.33721 11.7135 3.29622C11.8055 3.25523 11.9048 3.23319 12.0055 3.23141C12.1062 3.22963 12.2062 3.24816 12.2996 3.28588C12.393 3.3236 12.4778 3.37974 12.549 3.45096C12.6203 3.52218 12.6764 3.60702 12.7141 3.7004C12.7519 3.79379 12.7704 3.89382 12.7686 3.99452C12.7668 4.09523 12.7448 4.19454 12.7038 4.28654C12.6628 4.37854 12.6037 4.46134 12.53 4.53L9.06001 8L12.53 11.47C12.6037 11.5387 12.6628 11.6215 12.7038 11.7135C12.7448 11.8055 12.7668 11.9048 12.7686 12.0055C12.7704 12.1062 12.7519 12.2062 12.7141 12.2996C12.6764 12.393 12.6203 12.4778 12.549 12.549C12.4778 12.6203 12.393 12.6764 12.2996 12.7141C12.2062 12.7518 12.1062 12.7704 12.0055 12.7686C11.9048 12.7668 11.8055 12.7448 11.7135 12.7038C11.6215 12.6628 11.5387 12.6037 11.47 12.53L8.00001 9.06L4.53001 12.53C4.38784 12.6625 4.19979 12.7346 4.00549 12.7312C3.81119 12.7277 3.6258 12.649 3.48839 12.5116C3.35098 12.3742 3.27226 12.1888 3.26884 11.9945C3.26541 11.8002 3.33753 11.6122 3.47001 11.47L6.94001 8L3.47001 4.53C3.32956 4.38938 3.25067 4.19875 3.25067 4C3.25067 3.80125 3.32956 3.61063 3.47001 3.47Z" fill="black"/>
</svg>
